Coordinates
version=1
nRows=27
nColumns=38
inDegrees=no

Units are S.I. units (second, meters, Newtons, ...)
If the header above contains a line with 'inDegrees', this indicates whether rotational values are in degrees (yes) or radians (no).

endheader
time	pelvis_tilt	pelvis_list	pelvis_rotation	pelvis_tx	pelvis_ty	pelvis_tz	hip_flexion_r	hip_adduction_r	hip_rotation_r	knee_angle_r	ankle_angle_r	subtalar_angle_r	mtp_angle_r	hip_flexion_l	hip_adduction_l	hip_rotation_l	knee_angle_l	ankle_angle_l	subtalar_angle_l	mtp_angle_l	lumbar_extension	lumbar_bending	lumbar_rotation	arm_flex_r	arm_add_r	arm_rot_r	elbow_flex_r	pro_sup_r	wrist_flex_r	wrist_dev_r	arm_flex_l	arm_add_l	arm_rot_l	elbow_flex_l	pro_sup_l	wrist_flex_l	wrist_dev_l
5	-0.0399422	1.41956	1.70259	0.67526	0.277218	0.894029	0.909956	-0.132205	-0.0521924	1.24937	-0.250037	0	0	0.818289	-0.196563	-0.168746	1.23564	-0.0979245	0	0	-0.478985	0.219716	-0.0439978	0.597095	-0.515534	1.17795	0.423296	0.467191	0	0	-0.178724	-0.171569	-0.0369053	0.87307	1.5708	0	0
5.01	-0.0376248	1.41966	1.69923	0.67506	0.278436	0.897298	0.90069	-0.1305	-0.0529534	1.23766	-0.250532	0	0	0.808592	-0.195453	-0.170993	1.22275	-0.098835	0	0	-0.468757	0.217213	-0.0465986	0.58754	-0.514858	1.17355	0.427762	0.47872	0	0	-0.179103	-0.170235	-0.0387295	0.869433	1.5708	0	0
5.02	-0.0358615	1.41943	1.69632	0.674896	0.279693	0.900603	0.891699	-0.128885	-0.0538767	1.22578	-0.251451	0	0	0.798822	-0.19432	-0.173584	1.20923	-0.0998447	0	0	-0.457967	0.214498	-0.0492856	0.578239	-0.513874	1.17116	0.431889	0.488803	0	0	-0.179449	-0.169379	-0.0398646	0.865424	1.5708	0	0
5.03	-0.0335464	1.41907	1.69288	0.674748	0.280962	0.903969	0.882681	-0.127369	-0.0551967	1.21355	-0.252642	0	0	0.789096	-0.193151	-0.176177	1.19539	-0.101081	0	0	-0.446877	0.212023	-0.052234	0.569244	-0.512586	1.1699	0.435762	0.499133	0	0	-0.179399	-0.169129	-0.0395809	0.860642	1.5708	0	0
5.04	-0.0311635	1.41923	1.68932	0.674614	0.282283	0.907474	0.872658	-0.125637	-0.0562878	1.20073	-0.253377	0	0	0.778466	-0.192121	-0.178996	1.18106	-0.102335	0	0	-0.436338	0.209812	-0.0555018	0.560728	-0.511029	1.16917	0.439521	0.509112	0	0	-0.179187	-0.169482	-0.0382311	0.855393	1.5708	0	0
5.05	-0.0295618	1.42079	1.68666	0.674473	0.283774	0.911205	0.860416	-0.123804	-0.0572469	1.18699	-0.253364	0	0	0.765388	-0.191379	-0.182545	1.16589	-0.103341	0	0	-0.427263	0.207866	-0.0593782	0.552594	-0.508987	1.16869	0.442882	0.518927	0	0	-0.179144	-0.169927	-0.0370763	0.849981	1.5708	0	0
5.06	-0.0263329	1.42319	1.68303	0.674292	0.285431	0.915065	0.846577	-0.121791	-0.0583085	1.17312	-0.252664	0	0	0.751274	-0.190647	-0.185839	1.15042	-0.10455	0	0	-0.41903	0.206661	-0.0642756	0.544525	-0.506636	1.16782	0.446372	0.528376	0	0	-0.179512	-0.169873	-0.0373395	0.844931	1.5708	0	0
5.07	-0.0229585	1.4251	1.67928	0.674102	0.287126	0.918907	0.833098	-0.119701	-0.0590557	1.1591	-0.252411	0	0	0.737683	-0.189801	-0.189041	1.1347	-0.106283	0	0	-0.41048	0.205558	-0.0700962	0.536709	-0.503697	1.16643	0.449714	0.54007	0	0	-0.180576	-0.168939	-0.0404543	0.840309	1.5708	0	0
5.08	-0.0144448	1.42458	1.67047	0.6738	0.289005	0.922705	0.821574	-0.117311	-0.0600962	1.14381	-0.2534	0	0	0.726473	-0.188981	-0.191705	1.11831	-0.109038	0	0	-0.40358	0.20485	-0.0811553	0.532462	-0.498442	1.16324	0.454889	0.556705	0	0	-0.186627	-0.166284	-0.0529587	0.841077	1.5708	0	0
5.09	-0.0097443	1.42607	1.66527	0.673625	0.29069	0.926491	0.808594	-0.115089	-0.0609399	1.12916	-0.253738	0	0	0.713482	-0.188077	-0.194361	1.10235	-0.111667	0	0	-0.39454	0.202864	-0.0846574	0.521382	-0.497652	1.1564	0.460671	0.566267	0	0	-0.187273	-0.166356	-0.0544434	0.837626	1.5708	0	0
5.1	-0.00470571	1.42671	1.65941	0.673488	0.292379	0.930197	0.796435	-0.112662	-0.0618434	1.11445	-0.253628	0	0	0.701307	-0.187401	-0.197314	1.08617	-0.114815	0	0	-0.38449	0.200716	-0.0876832	0.509571	-0.497091	1.14823	0.466738	0.574881	0	0	-0.188094	-0.166385	-0.0560128	0.834745	1.5708	0	0
5.11	-0.00043618	1.42714	1.65402	0.673389	0.294069	0.933851	0.784391	-0.109942	-0.0619874	1.09944	-0.253793	0	0	0.689241	-0.186918	-0.200766	1.06978	-0.118734	0	0	-0.374099	0.1984	-0.0903699	0.497321	-0.496682	1.13915	0.472937	0.58364	0	0	-0.188978	-0.166609	-0.0572054	0.832494	1.5708	0	0
5.12	0.00333724	1.42733	1.64908	0.673319	0.295746	0.937388	0.772934	-0.107122	-0.0615696	1.08502	-0.254013	0	0	0.677648	-0.186433	-0.204318	1.0536	-0.122506	0	0	-0.363363	0.195943	-0.0937055	0.485637	-0.495573	1.13133	0.478346	0.591447	0	0	-0.190826	-0.167564	-0.0580573	0.831167	1.5708	0	0
5.13	0.00660867	1.4283	1.64477	0.673243	0.297461	0.940937	0.76038	-0.104301	-0.0609059	1.0701	-0.254131	0	0	0.665238	-0.185774	-0.207797	1.03722	-0.126315	0	0	-0.353476	0.193522	-0.0972206	0.474078	-0.494417	1.12327	0.48365	0.600552	0	0	-0.193003	-0.168856	-0.0587252	0.830954	1.5708	0	0
5.14	0.00938786	1.43029	1.64098	0.673154	0.299254	0.944532	0.746243	-0.101123	-0.0595179	1.0544	-0.253892	0	0	0.651306	-0.184979	-0.211249	1.02025	-0.129658	0	0	-0.344671	0.191213	-0.100616	0.462653	-0.493437	1.11518	0.488976	0.611284	0	0	-0.194915	-0.170136	-0.059309	0.830644	1.5708	0	0
5.15	0.01124	1.43312	1.63812	0.673076	0.301135	0.948174	0.730824	-0.0973949	-0.0570282	1.03806	-0.25361	0	0	0.636015	-0.184556	-0.215437	1.00297	-0.13295	0	0	-0.336538	0.18899	-0.103705	0.45118	-0.492477	1.10722	0.493835	0.623548	0	0	-0.196153	-0.1714	-0.05947	0.830223	1.5708	0	0
5.16	0.0111662	1.43687	1.63738	0.67299	0.303084	0.951825	0.714666	-0.0936235	-0.0542818	1.022	-0.25368	0	0	0.619481	-0.184092	-0.22027	0.985528	-0.136687	0	0	-0.328909	0.186648	-0.106485	0.439389	-0.491787	1.09927	0.498755	0.636682	0	0	-0.196797	-0.174027	-0.0562085	0.828206	1.5708	0	0
5.17	0.0104459	1.4409	1.63714	0.672955	0.305021	0.955407	0.698692	-0.0892723	-0.0505874	1.00637	-0.253827	0	0	0.602918	-0.183734	-0.225152	0.968492	-0.140737	0	0	-0.321136	0.184313	-0.108745	0.427349	-0.491582	1.09103	0.504262	0.649879	0	0	-0.196859	-0.177816	-0.0498954	0.824757	1.5708	0	0
5.18	0.00967237	1.44511	1.63653	0.672955	0.306969	0.958958	0.682709	-0.0843545	-0.0459205	0.99069	-0.253913	0	0	0.58589	-0.183197	-0.229979	0.950864	-0.144684	0	0	-0.312973	0.182142	-0.110468	0.415256	-0.491697	1.08313	0.509925	0.663242	0	0	-0.196144	-0.181786	-0.0421897	0.82077	1.5708	0	0
5.19	0.0119574	1.44711	1.63361	0.672853	0.308894	0.962173	0.669454	-0.0798265	-0.0416052	0.975958	-0.253571	0	0	0.572277	-0.182012	-0.232892	0.934424	-0.147681	0	0	-0.302062	0.18031	-0.113651	0.40349	-0.491745	1.07615	0.515864	0.67368	0	0	-0.196847	-0.185359	-0.0359694	0.817352	1.5708	0	0
5.2	0.0196191	1.44874	1.62762	0.672443	0.311006	0.965324	0.655419	-0.0770695	-0.040909	0.960413	-0.253098	0	0	0.559583	-0.179862	-0.233262	0.917759	-0.151336	0	0	-0.28967	0.179764	-0.118056	0.39022	-0.492732	1.06673	0.522517	0.68597	0	0	-0.197125	-0.187856	-0.0304583	0.812847	1.5708	0	0
5.21	0.0238908	1.44931	1.62441	0.672093	0.312975	0.968275	0.64306	-0.0746679	-0.0395616	0.9452	-0.253104	0	0	0.548135	-0.17766	-0.234653	0.901268	-0.155184	0	0	-0.276242	0.178414	-0.122325	0.377263	-0.493936	1.05734	0.529916	0.69765	0	0	-0.197763	-0.189845	-0.0265294	0.808951	1.5708	0	0
5.22	0.0232759	1.44907	1.62515	0.671838	0.314757	0.971059	0.632358	-0.0726814	-0.0374276	0.930566	-0.253555	0	0	0.53725	-0.175255	-0.237561	0.884297	-0.158958	0	0	-0.262459	0.176087	-0.126611	0.365365	-0.494975	1.04843	0.537679	0.708761	0	0	-0.198645	-0.192399	-0.022539	0.805637	1.5708	0	0
5.23	0.0209953	1.44778	1.62756	0.671589	0.316404	0.973674	0.623191	-0.0714214	-0.035766	0.916284	-0.254063	0	0	0.527699	-0.172614	-0.240906	0.867587	-0.162238	0	0	-0.248195	0.173378	-0.131649	0.354393	-0.495966	1.03941	0.545918	0.718965	0	0	-0.199935	-0.19483	-0.0198938	0.802843	1.5708	0	0
5.24	0.0181252	1.44627	1.63074	0.671337	0.318088	0.976211	0.614139	-0.0708198	-0.0351707	0.901857	-0.254463	0	0	0.518069	-0.169598	-0.243703	0.850447	-0.164925	0	0	-0.233948	0.170478	-0.136718	0.34298	-0.497137	1.02776	0.554677	0.731218	0	0	-0.201011	-0.1969	-0.0183487	0.799452	1.5708	0	0
5.25	0.0139044	1.45243	1.63457	0.671087	0.320037	0.979533	0.594699	-0.070207	-0.0368495	0.8837	-0.256924	0	0	0.497503	-0.167383	-0.249228	0.829487	-0.169547	0	0	-0.227898	0.168097	-0.137296	0.328693	-0.500891	1.00847	0.566318	0.747516	0	0	-0.197059	-0.201683	-0.00580788	0.792236	1.5708	0	0
5.26	0.0100461	1.45417	1.63782	0.670846	0.321935	0.982287	0.580963	-0.0696769	-0.0378267	0.866968	-0.258252	0	0	0.482156	-0.164244	-0.252619	0.809104	-0.172004	0	0	-0.216137	0.165559	-0.140121	0.317792	-0.503673	0.999731	0.575428	0.755813	0	0	-0.194834	-0.205454	0.00403335	0.783651	1.5708	0	0
